<?xml version="1.0" encoding="utf-8"?>
<!-- Generator: Adobe Illustrator 24.2.3, SVG Export Plug-In . SVG Version: 6.00 Build 0)  -->
<svg version="1.0"
	 id="svg4871" inkscape:version="0.48.4 r9939" sodipodi:docname="drawing.svg" xmlns:cc="http://creativecommons.org/ns#" xmlns:dc="http://purl.org/dc/elements/1.1/" xmlns:inkscape="http://www.inkscape.org/namespaces/inkscape" xmlns:rdf="http://www.w3.org/1999/02/22-rdf-syntax-ns#" xmlns:sodipodi="http://sodipodi.sourceforge.net/DTD/sodipodi-0.dtd" xmlns:svg="http://www.w3.org/2000/svg"
	 xmlns="http://www.w3.org/2000/svg" xmlns:xlink="http://www.w3.org/1999/xlink" x="0px" y="0px" viewBox="0 0 1588.2 847"
	 style="enable-background:new 0 0 1588.2 847;" xml:space="preserve">
<style type="text/css">
	.st0{fill:#93999E;}
	.st1{fill:#747B81;}
	.st2{fill:#485053;}
	.st3{fill:#1A1C1B;}
	.st4{fill:#485053;stroke:#1A1C1B;}
	.st5{fill:#A8A1FF;}
	.st6{fill:#6450BC;}
	.st7{fill:#747B81;stroke:#747B81;}
	.st8{fill:#D3D4D6;stroke:#D3D4D6;}
	.st9{fill:#EF1616;}
	.st10{enable-background:new    ;}
	.st11{font-family:'DMRetrograde-Regular';}
	.st12{font-size:72px;}
	.st13{fill:#FFFFFF;}
	.st14{font-family:'DMRetrograde-Bold';}
	.st15{opacity:0.99;fill:#FFFFFF;stroke:#FFFFFF;stroke-miterlimit:5.0949;enable-background:new    ;}
	.st16{fill:#FFFFFF;stroke:#FFFFFF;}
</style>
<sodipodi:namedview  bordercolor="#666666" borderopacity="1.0" fit-margin-bottom="0" fit-margin-left="0" fit-margin-right="0" fit-margin-top="0" id="base" inkscape:current-layer="layer1" inkscape:cx="573.50824" inkscape:cy="684.67522" inkscape:document-units="px" inkscape:pageopacity="0.0" inkscape:pageshadow="2" inkscape:window-height="747" inkscape:window-maximized="0" inkscape:window-width="1358" inkscape:window-x="0" inkscape:window-y="19" inkscape:zoom="0.44725269" pagecolor="#ffffff" showgrid="false" width="1920px">
	</sodipodi:namedview>
<path id="path4944" inkscape:connector-curvature="0" class="st0" d="M199,7.9v0.2C88.4,12.4,0,103.5,0,215.2
	c0,114.5,92.8,207.3,207.3,207.3c42.7,0,82.4-12.9,115.3-35c5.8-3.9,7.6-5,13.4-7.9c5.6-2.8,12.5-4.7,16.4-4.7h129.2h3.9h129.3
	c3.9,0,10.8,1.9,16.4,4.7c5.8,2.8,7.6,4,13.4,7.9c33,22.1,72.6,35,115.3,35c114.5,0,207.3-92.8,207.3-207.3
	c0-111.7-88.4-202.8-199-207.2V7.9H760H485.6h-3.9H207.3H199L199,7.9z"/>
<path id="path5603" sodipodi:cx="1241.7771" sodipodi:cy="545.25275" sodipodi:rx="144.68755" sodipodi:ry="144.68755" sodipodi:type="arc" class="st1" d="
	M943.2,215.2c0,100.4-81.4,181.8-181.8,181.8s-181.8-81.4-181.8-181.8S661,33.4,761.4,33.4S943.2,114.8,943.2,215.2z"/>
<path id="path5631" inkscape:connector-curvature="0" sodipodi:nodetypes="ccccaacaasaczssssscccaaasczccsscczczccccccccccccccc" class="st0" d="
	M652.8,7.2h40.3h33.9h36.7c0,0,2.7,0,4,0c3.8,0.1,7.5,0.3,11.3,0.6c3.5,0.3,6.8,0.6,10.4,1.1c3.6,0.5,6.6,0.8,9.9,1.4
	c2.6,0.5,5.2,1,7.8,1.7c2.7,0.6,5.3,1.4,7.9,2.2c2.2,0.6,4.3,1.3,6.4,2c3.7,1.2,7.9,2.7,11,3.8c1.7,0.6,3,1.1,4.9,1.9
	c1.9,0.8,4.4,1.8,6.5,2.8c2.2,1,4.4,2,6.5,3.1c2,1,4,2,6,3.1c0.9,0.5,1.8,1,2.7,1.4c0.6,0.3,1.3,0.7,1.9,1c0.3,0.2,1,0.5,1,0.5
	l0.7-5.5c-0.3-0.8-1-1.4-1.7-1.7c-1.1-0.7-2.2-1.3-3.2-2c-1.4-0.9-2.9-1.8-4.3-2.6c-1-0.6-2-1.1-3.1-1.6c-1.2-0.6-2.5-1.2-3.7-1.7
	c-1-0.5-2-1-3-1.5s-0.8-0.5-3.3-1.5s-8.4-3.1-11.9-4.4c-2.7-0.9-4.1-1.4-5.9-2c-3.3-1.1-6.2-1.7-10.3-2.8c-2.5-0.7-3.8-1.2-6.6-1.7
	c-2.5-0.4-4.5-0.9-6.4-1.2l-2.4-0.4c0,0-1.8-0.3-3.1-0.4s-3.5-0.4-4.9-0.6c-1.5-0.1-2.6-0.3-6-0.7s-7.9-0.7-11.8-1
	c-2-0.2-6.2-0.4-6.2-0.4h-12.4h-16.5h-15.4h-15h-15.7h-14.8h-10.6h-2.7l-3.5,0.3l-2.6,1l-1.7,1.3l-1,1.5L652.8,7.2z"/>
<path id="path5631-7" inkscape:connector-curvature="0" sodipodi:nodetypes="ccccaacaasaczssssscccaaasczccsscczczccccccccccccccc" class="st0" d="
	M314.6,7.2h-40.3h-33.9h-36.7c0,0-2.7,0-4,0c-3.8,0.1-7.5,0.3-11.3,0.6c-3.5,0.3-6.8,0.6-10.4,1.1c-3.6,0.5-6.6,0.8-9.9,1.4
	c-2.6,0.5-5.2,1-7.8,1.7c-2.7,0.6-5.3,1.4-7.9,2.2c-2.2,0.6-4.3,1.3-6.4,2c-3.7,1.2-7.9,2.7-11,3.8c-1.7,0.6-3,1.1-4.9,1.9
	c-1.9,0.8-4.4,1.8-6.5,2.8c-2.2,1-4.4,2-6.5,3.1c-2,1-4,2-6,3.1c-0.9,0.5-1.8,1-2.7,1.4c-0.6,0.3-1.3,0.7-1.9,1
	c-0.3,0.2-1,0.5-1,0.5l-0.7-5.5c0.3-0.8,1-1.4,1.7-1.7c1.1-0.7,2.2-1.3,3.2-2c1.4-0.9,2.9-1.8,4.3-2.6c1-0.6,2-1.1,3.1-1.6
	c1.2-0.6,2.5-1.2,3.7-1.7c1-0.5,2-1,3-1.5c1.1-0.5,0.8-0.5,3.3-1.5s8.4-3.1,11.9-4.4c2.7-0.9,4.1-1.4,5.9-2
	c3.3-1.1,6.2-1.7,10.3-2.8c2.5-0.7,3.8-1.2,6.6-1.7c2.5-0.4,4.5-0.9,6.4-1.2l2.4-0.4c0,0,1.8-0.3,3.1-0.4s3.5-0.4,4.9-0.6
	c1.5-0.1,2.6-0.3,6-0.7s7.9-0.7,11.8-1c2-0.2,6.2-0.4,6.2-0.4h12.4h16.5H247h15h15.7h14.8h10.6h2.7l3.5,0.3l2.6,1l1.7,1.3l1,1.5
	L314.6,7.2z"/>
<g id="path5695" sodipodi:cx="578.75018" sodipodi:cy="464.70502" sodipodi:rx="102.92207" sodipodi:ry="102.92207" sodipodi:type="arc">
	<path class="st1" d="M206,103.3c29.9,0,58,11.6,79.1,32.8c21.1,21.1,32.8,49.2,32.8,79.1s-11.6,58-32.8,79.1
		c-21.1,21.1-49.2,32.8-79.1,32.8s-58-11.6-79.1-32.8s-32.8-49.2-32.8-79.1s11.6-58,32.8-79.1S176.1,103.3,206,103.3 M206,100.3
		c-63.4,0-114.9,51.4-114.9,114.9S142.6,330.1,206,330.1s114.9-51.4,114.9-114.9S269.5,100.3,206,100.3L206,100.3z"/>
</g>
<g id="rect4752-7" inkscape:connector-curvature="0">
	<path class="st2" d="M188.7,297.6c-5.4,0-9.7-4.4-9.7-9.8v-45.7h-45.7c-5.4,0-9.8-4.4-9.8-9.7v-34.6c0-5.4,4.4-9.8,9.8-9.8H179
		v-45.7c0-5.4,4.4-9.7,9.7-9.7h34.6c5.4,0,9.7,4.4,9.7,9.7v45.7h45.7c5.4,0,9.8,4.4,9.8,9.8v34.6c0,5.4-4.4,9.7-9.8,9.7h-45.7v45.7
		c0,5.4-4.4,9.8-9.7,9.8H188.7z"/>
	<path class="st3" d="M223.3,134.3c4.6,0,8.2,3.7,8.2,8.2v47.2h47.2c4.6,0,8.2,3.7,8.2,8.2v34.6c0,4.6-3.7,8.2-8.2,8.2h-47.2v47.2
		c0,4.6-3.7,8.2-8.2,8.2h-34.6c-4.6,0-8.2-3.7-8.2-8.2v-47.2h-47.2c-4.6,0-8.2-3.7-8.2-8.2v-34.6c0-4.6,3.7-8.2,8.2-8.2h47.2v-47.2
		c0-4.6,3.7-8.2,8.2-8.2H223.3 M223.3,131.3h-34.6c-6.2,0-11.2,5-11.2,11.2v44.2h-44.2c-6.2,0-11.2,5-11.2,11.2v34.6
		c0,6.2,5,11.2,11.2,11.2h44.2v44.2c0,6.2,5,11.2,11.2,11.2h34.6c6.2,0,11.2-5,11.2-11.2v-44.2h44.2c6.2,0,11.2-5,11.2-11.2v-34.6
		c0-6.2-5-11.2-11.2-11.2h-44.2v-44.2C234.6,136.3,229.5,131.3,223.3,131.3L223.3,131.3z"/>
</g>
<path id="path6000" inkscape:connector-curvature="0" inkscape:transform-center-x="-5.1055901" inkscape:transform-center-y="2.3103264" class="st4" d="
	M245.8,231.7l0-33l32.6,16.5L245.8,231.7z"/>
<path id="path6000-8" inkscape:connector-curvature="0" inkscape:transform-center-x="5.1055901" inkscape:transform-center-y="2.3103264" class="st4" d="
	M166.2,231.7l0-33l-32.6,16.5L166.2,231.7z"/>
<path id="path6000-5" inkscape:connector-curvature="0" inkscape:transform-center-x="-2.3103301" inkscape:transform-center-y="-5.1055936" class="st4" d="
	M222.5,175.4l-33,0l16.5-32.6L222.5,175.4z"/>
<path id="path6000-5-9" inkscape:connector-curvature="0" inkscape:transform-center-x="-2.3103301" inkscape:transform-center-y="5.1055936" class="st4" d="
	M222.5,255l-33,0l16.5,32.6L222.5,255z"/>
<path id="rect6093-8" class="st0" d="M640.9,177.5l92.4-71.9c20.4-15.8,49.7-12.2,65.6,8.2l0,0c15.8,20.4,12.2,49.7-8.2,65.6
	l-92.4,71.9c-20.4,15.8-49.7,12.2-65.6-8.2l0,0C616.9,222.7,620.6,193.3,640.9,177.5z"/>
<path id="path6149" sodipodi:cx="1216.689" sodipodi:cy="468.91046" sodipodi:rx="28.928564" sodipodi:ry="28.928564" sodipodi:type="arc" class="st5" d="
	M798.8,142.6c0,20.4-16.5,36.8-36.8,36.8s-36.8-16.5-36.8-36.8s16.5-36.8,36.8-36.8S798.8,122.2,798.8,142.6z"/>
<path id="path6149-3" sodipodi:cx="1216.689" sodipodi:cy="468.91046" sodipodi:rx="28.928564" sodipodi:ry="28.928564" sodipodi:type="arc" class="st5" d="
	M706.5,214.3c0,20.4-16.5,36.8-36.8,36.8s-36.8-16.5-36.8-36.8s16.5-36.8,36.8-36.8S706.5,194,706.5,214.3z"/>
<path id="rect6093-8-7" class="st0" d="M732.7,248.2l92.4-71.9c20.4-15.8,49.7-12.2,65.6,8.2l0,0c15.8,20.4,12.2,49.7-8.2,65.6
	L790.1,322c-20.4,15.8-49.7,12.2-65.6-8.2l0,0C708.6,293.4,712.3,264.1,732.7,248.2z"/>
<path id="path6149-1" sodipodi:cx="1216.689" sodipodi:cy="468.91046" sodipodi:rx="28.928564" sodipodi:ry="28.928564" sodipodi:type="arc" class="st6" d="
	M890.5,213.3c0,20.4-16.5,36.8-36.8,36.8s-36.8-16.5-36.8-36.8s16.5-36.8,36.8-36.8S890.5,193,890.5,213.3z"/>
<path id="path6149-3-8" sodipodi:cx="1216.689" sodipodi:cy="468.91046" sodipodi:rx="28.928564" sodipodi:ry="28.928564" sodipodi:type="arc" class="st6" d="
	M798.3,285.1c0,20.4-16.5,36.8-36.8,36.8s-36.8-16.5-36.8-36.8c0-20.4,16.5-36.8,36.8-36.8S798.3,264.7,798.3,285.1z"/>
<path id="rect6211-4" class="st2" d="M469,248l40.7-30.6c6.8-5.1,16.4-3.7,21.4,3l0,0c5.1,6.8,3.7,16.4-3,21.4l-40.7,30.6
	c-6.8,5.1-16.4,3.7-21.4-3l0,0C460.9,262.7,462.2,253.1,469,248z"/>
<path id="rect6211-4-4" class="st2" d="M363.7,248l40.7-30.6c6.8-5.1,16.4-3.7,21.4,3l0,0c5.1,6.8,3.7,16.4-3,21.4l-40.7,30.6
	c-6.8,5.1-16.4,3.7-21.4-3l0,0C355.6,262.7,356.9,253.1,363.7,248z"/>
<path id="path3143" inkscape:connector-curvature="0" class="st7" d="M363.8,320.6c-0.1,0.4-0.2,0.6-0.5,0.9
	c-0.3,0.2-0.6,0.3-0.9,0.3h-4.2c-0.4,0-0.6-0.1-0.8-0.3c-0.2-0.2-0.2-0.5-0.2-0.9l0.9-4.3h1.5l-0.8,4.1h3.6l0.8-4l-3.5-5.6
	c-0.3-0.4-0.3-0.8-0.2-1.3l0.7-3.4c0.1-0.4,0.2-0.6,0.5-0.9c0.3-0.2,0.6-0.3,0.9-0.3h4.2c0.4,0,0.6,0.1,0.8,0.3
	c0.2,0.2,0.2,0.5,0.2,0.9l-0.8,3.9h-1.5l0.8-3.8h-3.6l-0.7,3.5l3.5,5.6c0.2,0.4,0.3,0.8,0.2,1.3L363.8,320.6"/>
<path id="path3145" inkscape:connector-curvature="0" class="st7" d="M376,321.8h-5.5l3.4-16.8h5.5l-0.3,1.3h-4l-1.2,6.3h3.6
	l-0.3,1.3h-3.6l-1.3,6.6h4L376,321.8"/>
<path id="path3147" inkscape:connector-curvature="0" class="st7" d="M388,321.8h-5.4L386,305h1.5l-3.1,15.5h3.9L388,321.8"/>
<path id="path3149" inkscape:connector-curvature="0" class="st7" d="M399.9,321.8h-5.5l3.4-16.8h5.5l-0.3,1.3h-4l-1.2,6.3h3.6
	l-0.3,1.3h-3.6l-1.3,6.6h4L399.9,321.8"/>
<path id="path3151" inkscape:connector-curvature="0" class="st7" d="M413.5,320.6c-0.1,0.4-0.2,0.6-0.5,0.9
	c-0.3,0.2-0.6,0.3-0.9,0.3h-4.3c-0.4,0-0.6-0.1-0.8-0.3s-0.2-0.5-0.2-0.9l2.9-14.4c0.1-0.4,0.2-0.6,0.5-0.9c0.3-0.2,0.6-0.3,0.9-0.3
	h4.3c0.4,0,0.6,0.1,0.8,0.3c0.2,0.2,0.2,0.5,0.2,0.9l-0.8,3.9h-1.5l0.8-3.8h-3.7l-2.8,14.2h3.7l0.8-4.1h1.5L413.5,320.6"/>
<path id="path3153" inkscape:connector-curvature="0" class="st7" d="M429.1,306.3h-2.6l-3.1,15.5h-1.5l3.1-15.5h-2.6l0.3-1.3h6.7
	L429.1,306.3"/>
<path id="path3132" inkscape:connector-curvature="0" class="st7" d="M474.6,320.6c-0.1,0.4-0.2,0.6-0.5,0.9
	c-0.3,0.2-0.6,0.3-0.9,0.3H469c-0.4,0-0.6-0.1-0.8-0.3c-0.2-0.2-0.2-0.5-0.2-0.9l0.9-4.3h1.5l-0.8,4.1h3.6l0.8-4l-3.5-5.6
	c-0.3-0.4-0.3-0.8-0.2-1.3l0.7-3.4c0.1-0.4,0.2-0.6,0.5-0.9c0.3-0.2,0.6-0.3,0.9-0.3h4.2c0.4,0,0.6,0.1,0.8,0.3
	c0.2,0.2,0.2,0.5,0.2,0.9l-0.8,3.9h-1.5l0.8-3.8h-3.6l-0.7,3.5l3.5,5.6c0.2,0.4,0.3,0.8,0.2,1.3L474.6,320.6"/>
<path id="path3134" inkscape:connector-curvature="0" class="st7" d="M490.2,306.3h-2.6l-3.1,15.5H483l3.1-15.5h-2.6l0.3-1.3h6.7
	L490.2,306.3"/>
<path id="path3136" inkscape:connector-curvature="0" class="st7" d="M499.9,321.8h-1.5l0.2-3.7h-3.3l-1.3,3.7h-1.4l0,0l6.4-16.8
	h1.5L499.9,321.8 M498.7,316.7l0.4-9.1l-3.3,9.1H498.7"/>
<path id="path3138" inkscape:connector-curvature="0" class="st7" d="M513.4,321.8h-1.6l-1.3-9l0.3-0.3h2.7l1.2-6.2h-3.8l-3.1,15.5
	h-1.5l3.4-16.8h5.6c0.4,0,0.6,0.1,0.8,0.3c0.2,0.2,0.2,0.5,0.2,0.9l-1.3,6.4c-0.2,0.8-0.8,1.2-1.9,1.2c-0.1,0-0.3,0-0.5,0
	c-0.2,0-0.3,0-0.4,0C512.6,316.4,513,319.1,513.4,321.8"/>
<path id="path3140" inkscape:connector-curvature="0" class="st7" d="M528.9,306.3h-2.6l-3.1,15.5h-1.5l3.1-15.5h-2.6l0.3-1.3h6.7
	L528.9,306.3"/>
<path id="path3868" inkscape:connector-curvature="0" class="st1" d="M309.4,81.2c0-3.1,4.9-5.5,10.9-5.5c6.1,0,10.9,2.5,10.9,5.5
	c0,3.1-4.9,5.5-10.9,5.5C314.3,86.8,309.4,84.3,309.4,81.2"/>
<path id="path3870" inkscape:connector-curvature="0" class="st1" d="M329.6,91.5c0-3.2,5.1-5.8,11.5-5.8c6.3,0,11.5,2.6,11.5,5.8
	c0,3.2-5.2,5.8-11.5,5.8C334.8,97.3,329.6,94.7,329.6,91.5"/>
<path id="path3872" inkscape:connector-curvature="0" class="st1" d="M334.3,78.7c5.5-0.2,10-4.8,10-10.4c0-5.7-4.7-10.4-10.4-10.4
	c-5.7,0-10.3,4.6-10.4,10.3c0.1,0,0.3,0,0.4,0c5.7,0,10.4,4.6,10.4,10.4V78.7"/>
<path id="path3874" inkscape:connector-curvature="0" class="st1" d="M354.5,89c5.4-0.2,9.7-4.7,9.7-10.1c0-5.6-4.5-10.1-10.1-10.1
	c-5.5,0-10,4.5-10.1,10c0.1,0,0.3,0,0.4,0c5.6,0,10.1,4.5,10.1,10.1V89"/>
<path id="path3876" inkscape:connector-curvature="0" class="st1" d="M511.2,89.8h10.2l0.7-4.5h-5l2.1-12.2h5l0.7-3.8h-5l2.2-11.2h5
	l0.7-4.5h-9.5L511.2,89.8"/>
<path id="path3878" inkscape:connector-curvature="0" class="st1" d="M419.8,89.8H430l0.7-4.5h-5l2.1-12.2h5l0.7-3.8h-5l2.2-11.2h5
	l0.7-4.5h-9.5L419.8,89.8"/>
<path id="path3880" inkscape:connector-curvature="0" class="st1" d="M502.2,89.8h5.2l5.7-31.6h2.7l0.7-4.5h-10.7l-0.9,4.5h2.8
	L502.2,89.8"/>
<path id="path3882" inkscape:connector-curvature="0" class="st1" d="M540.3,53.7l-3.5,18.8l-2.4-18.8h-4.5l-6.8,36h5.2l4.2-20.9
	l1.7,20.9h4.5l6.8-36H540.3"/>
<path id="path3884" inkscape:connector-curvature="0" class="st1" d="M473.8,53.7l-3.5,18.8l-2.4-18.8h-4.5l-6.8,36h5.2l4.2-20.9
	l1.7,20.9h4.5l6.8-36H473.8"/>
<path id="path3886" inkscape:connector-curvature="0" class="st1" d="M498.7,53.7l-3.5,18.8l-2.4-18.8h-4.5l-6.8,36h5.2l4.2-20.9
	l1.7,20.9h4.5l6.8-36H498.7"/>
<path id="path3888" inkscape:connector-curvature="0" class="st1" d="M485.9,53.7h-4.5l-6.8,36h4.5L485.9,53.7"/>
<path id="path3890" inkscape:connector-curvature="0" class="st1" d="M567.6,60.3c0.2-1.3,1.2-2.4,2.5-2.4s2.2,1.1,2,2.4l-4.2,23.6
	c-0.2,1.3-1.5,2.4-2.8,2.4c-1.3,0-1.9-1.1-1.7-2.4L567.6,60.3L567.6,60.3z M563.2,57.3l-5.1,29.1c-0.3,1.9,0.9,3.3,2.8,3.3h7.5
	c1.9,0,3.7-1.5,4-3.3l5.5-29.1c0.4-2-0.9-3.6-2.8-3.6h-7.7C565.4,53.7,563.5,55.3,563.2,57.3"/>
<path id="path3892" inkscape:connector-curvature="0" class="st1" d="M393.3,85.5l5.6-31.8h-4.6l-5.7,32.7c-0.3,1.9,0.9,3.3,2.8,3.3
	h6.8c1.9,0,3.7-1.5,4-3.3l6.1-32.7h-4.3l-5.8,31.8c-0.1,0.5-0.5,0.8-1,0.8H394C393.6,86.3,393.2,86,393.3,85.5"/>
<path id="path3894" inkscape:connector-curvature="0" class="st1" d="M546.5,86.3l5.3-28.4h2.1c1.3,0,2.2,1.1,2,2.4l-4.5,23.6
	c-0.2,1.3-1.5,2.4-2.8,2.4H546.5z M547.9,53.7l-6.8,36h10.4c1.9,0,3.7-1.5,4-3.3l5.5-29.1c0.4-2-0.9-3.6-2.8-3.6L547.9,53.7"/>
<path id="path3896" inkscape:connector-curvature="0" class="st1" d="M413,70c-0.4,0-0.7-0.3-0.7-0.6c0-0.1,0-0.1,0-0.2l2.1-10.9
	c0.2-0.2,0.4-0.3,0.7-0.3h2.2c0.5,0,1.5,1.1,1.4,1.6l-1.9,8.9c-0.1,0.5-0.7,1.5-1.1,1.5H413z M415.3,53.7h-4.5l-6.8,36h4.5l3.1-16.3
	h5.8c1.9,0,3.7-1.5,4-3.3l2.5-12.8c0.4-2-0.9-3.6-2.8-3.6H415.3z M412.3,69.4l0-0.2C412.3,69.3,412.3,69.3,412.3,69.4"/>
<path id="path3898" inkscape:connector-curvature="0" class="st1" d="M442.8,58.3c0.2-0.2,0.4-0.3,0.7-0.3h2.1
	c0.5,0,1.5,1.1,1.4,1.6l-1.9,8.9c-0.1,0.5-1.2,1.5-1.7,1.5h-2c-0.4,0-0.7-0.3-0.7-0.6c0-0.1,0-0.1,0-0.2L442.8,58.3L442.8,58.3z
	 M446,72.8h-0.3c1.3-0.5,3.7-1.3,4-2.7l2.5-12.8c0.4-2-0.9-3.6-2.8-3.6h-10.2l-6.8,36h4.5l3.1-16.3h3.2c0.4,0.4,0.5,1.1,0.5,1.5
	c0.1,0.5,0.2,1.2,0.1,1.7c-0.1,0.5-2.5,13.1-2.5,13.1h4.5c0,0,2.6-13.7,2.6-13.9c0-0.2,0-0.9-0.2-1.3c-0.2-0.2-0.5-0.8-0.8-1
	C446.7,73.1,446,72.8,446,72.8L446,72.8z M440.7,69.4l0-0.2C440.7,69.3,440.7,69.3,440.7,69.4"/>
<path id="path3900" inkscape:connector-curvature="0" class="st1" d="M439.7,94.4l-0.4,8h-1.3l0.2-1.8h-0.8l-0.7,1.8h-1.2l2.9-8
	H439.7z M539,94.9c0.1-0.4,0.5-0.8,0.9-0.8h1.6c0.4,0,0.7,0.4,0.6,0.8l-0.4,2h-1l0.2-1.3c0-0.3-0.1-0.5-0.4-0.5
	c-0.3,0-0.6,0.2-0.6,0.5l-0.2,1c0,0.1,0,0.3,0.1,0.4c0.1,0.1,1.4,2.2,1.4,2.3c0,0.1,0,0.1,0,0.2c0,0.3-0.4,2-0.4,2
	c-0.1,0.4-0.5,0.7-0.9,0.7h-1.5c-0.4,0-0.7-0.3-0.6-0.7l0.3-2h1l-0.3,1.5c0,0.3,0.2,0.5,0.4,0.5c0.3,0,0.6-0.2,0.6-0.5l0.2-1.2
	c-0.2-0.5-1.4-2.3-1.5-2.7c-0.1,0-0.1-0.3-0.1-0.5C538.7,96.2,539,94.9,539,94.9L539,94.9z M519.3,94.9c0.1-0.4,0.5-0.8,0.9-0.8h1.6
	c0.4,0,0.7,0.4,0.6,0.8l-0.4,2h-1l0.2-1.3c0-0.3-0.1-0.5-0.4-0.5c-0.3,0-0.6,0.2-0.6,0.5l-0.2,1c0,0.1,0,0.3,0.1,0.4
	c0.1,0.1,1.4,2.2,1.4,2.3c0,0.1,0,0.1,0,0.2c0,0.3-0.4,2-0.4,2c-0.1,0.4-0.5,0.7-0.9,0.7h-1.5c-0.4,0-0.7-0.3-0.6-0.7l0.4-2h1
	l-0.3,1.5c0,0.3,0.2,0.5,0.5,0.5c0.3,0,0.6-0.2,0.6-0.5l0.2-1.2c-0.2-0.5-1.4-2.3-1.5-2.7c-0.1,0-0.1-0.3-0.1-0.5
	C519,96.2,519.3,94.9,519.3,94.9L519.3,94.9z M555.7,102.1l1.6-8h2.1l-0.2,1h-1.1l-0.5,2.5h1.1l-0.2,0.8h-1.1l-0.5,2.7h1.1l-0.2,1
	H555.7L555.7,102.1z M547.2,102.1l1.2-7h-0.6l0.2-1h2.4l-0.2,1h-0.6l-1.3,7C548.3,102.1,547.2,102.1,547.2,102.1z M569.6,94.1l1.3,0
	l-1.4,8h-1l0.6-4.2l-1.8,4.2h-0.7l-0.2-4.3l-0.8,4.3h-1.2l1.5-8h1.3l0.2,4.6C567.6,98.7,569.6,94.1,569.6,94.1z M528.7,98.5
	l-0.5-4.4h1.3l0.2,3l1.7-3h1.3l-2.6,4.6l-0.6,3.4h-1.2L528.7,98.5L528.7,98.5z M417.9,98.7c0,0,0.4,0.1,0.5,0.2
	c0,0.1,0.1,0.3,0.1,0.4c0,0-0.6,3.2-0.6,3.2h-1c0,0,0.5-2.8,0.6-2.9c0-0.1,0-0.3,0-0.4c0-0.1,0-0.3-0.1-0.3h-0.7l-0.7,3.6h-1l1.5-8
	h2.3c0.4,0,0.7,0.4,0.6,0.8l-0.5,2.8C418.7,98.3,418.2,98.6,417.9,98.7L417.9,98.7L417.9,98.7z M404.9,102.4l1.6-8h2.1l-0.2,1h-1.1
	l-0.5,2.5h1.1l-0.2,0.8h-1.1l-0.5,2.7h1.1l-0.2,1C407.1,102.4,404.9,102.4,404.9,102.4z M472.2,94.4l1.3,0l-1.4,8h-1l0.6-4.2
	l-1.8,4.2h-0.7l-0.2-4.3l-0.8,4.3h-1.2l1.5-8h1.3l0.2,4.6L472.2,94.4L472.2,94.4z M448.8,94.4l-1.5,8h-1l1.5-8H448.8L448.8,94.4z
	 M494.1,94.4h1.2l-1.5,8h-1l-0.4-4.6l-0.9,4.6h-1.2l1.5-8h1l0.5,4.2L494.1,94.4z M459.2,94.4h1.2l-1.5,8h-1l-0.4-4.6l-0.9,4.6h-1.2
	l1.5-8h1l0.5,4.2L459.2,94.4L459.2,94.4z M501.5,102.4l1.2-7h-0.6l0.2-1h2.4l-0.2,1h-0.6l-1.3,7H501.5L501.5,102.4z M387.8,94.4h1.2
	l-1.5,8h-1l-0.4-4.6l-0.9,4.6H384l1.5-8h1l0.5,4.2L387.8,94.4z M479.9,102.4l1.6-8h2.1l-0.2,1h-1.1l-0.5,2.5h1.1l-0.2,0.8h-1.1
	l-0.5,2.7h1.1l-0.2,1L479.9,102.4L479.9,102.4z M374.1,102.4l1.6-8h2.1l-0.2,1h-1.1l-0.5,2.5h1.1l-0.2,0.8h-1.1l-0.5,2.7h1.1l-0.2,1
	C376.4,102.4,374.1,102.4,374.1,102.4z M425.8,102.4l1.2-7h-0.6l0.2-1h2.4l-0.2,1h-0.6l-1.3,7H425.8L425.8,102.4z M395.3,102.4
	l1.2-7h-0.6l0.2-1h2.4l-0.2,1h-0.6l-1.3,7H395.3L395.3,102.4z M371.3,92.9v11.8h202.3V92.9H371.3z M437.6,99.8h0.6l0.2-2L437.6,99.8
	z M416.9,98h0.4c0.1,0,0.4-0.2,0.4-0.3l0.4-2c0-0.1-0.2-0.4-0.3-0.4h-0.5c-0.1,0-0.1,0-0.2,0.1l-0.5,2.4c0,0,0,0,0,0
	C416.8,98,416.8,98,416.9,98"/>
<path id="path3902" inkscape:connector-curvature="0" class="st1" d="M377.2,57.3c0,0-1.3,5.9-1.4,6.9c0,0.9,0.1,2,0.4,2.3
	c0.3,1.9,6.7,10.7,6.5,12.1c-0.2,1.3-0.9,5.3-0.9,5.3c-0.2,1.3-1.2,2.4-2.5,2.4c-1.3,0-2.2-1.1-2-2.4l1.2-6.6h-4.7l-1.6,9.1
	c-0.3,1.9,0.9,3.3,2.8,3.3h6.8c1.9,0,3.7-1.5,4-3.3c0,0,1.7-8.5,1.7-9.1c0-0.6-0.2-0.7-0.2-0.7v0c0-0.7-5.7-10-6.2-10.4
	c-0.2-0.1-0.4-1-0.5-1.6c0-0.6,0.7-4.3,0.7-4.3c0.2-1.3,1.5-2.4,2.8-2.4s1.9,1.1,1.7,2.4l-1,5.9h4.8l1.7-8.9c0.4-2-0.9-3.6-2.8-3.6
	h-7C379.4,53.7,377.6,55.3,377.2,57.3"/>
<path id="path3156" inkscape:connector-curvature="0" class="st8" d="M616.8,242.7l-4.9,9.9c-0.6,1-1.4,2.6-2.5,5l-1.9,9.5h-2.2
	l1.9-9.5c0-0.8,0-1.6-0.2-2.5c-0.2-1.5-0.3-2.3-0.3-2.5l-1-9.9c0,0,0-0.1,0-0.1h2.2l0.9,12.2l5.8-12.2h2.2
	C616.9,242.7,616.9,242.7,616.8,242.7"/>
<path id="path3123" inkscape:connector-curvature="0" class="st8" d="M823.4,112.6h-2.2l-1.2-10l-5.3,10h-2.2c0-0.1,0-0.1,0-0.1
	l6.8-12.4c-1.2-7.9-1.7-11.9-1.7-11.9h2.3l1.1,9.3l4.9-9.3h2.2c0,0.1,0,0.1,0,0.1l-6.4,11.7C822.9,108.3,823.4,112.5,823.4,112.6"/>
<path id="path3129" inkscape:connector-curvature="0" class="st8" d="M706.2,340.6c-0.1,0.5-0.3,0.9-0.7,1.2
	c-0.4,0.3-0.8,0.5-1.3,0.5h-8.1l4.9-24.5h8c0.5,0,0.9,0.2,1.2,0.5c0.3,0.3,0.3,0.7,0.2,1.2l-1.5,7.3c-0.1,0.6-0.5,1.2-1.2,1.6
	c-0.6,0.3-1.3,0.7-1.9,1l1.6,1.2c0.5,0.3,0.6,0.9,0.5,1.6L706.2,340.6 M706.7,327.1l1.5-7.4h-5.4l-1.8,8.8h3.2L706.7,327.1
	 M704.1,340.4l1.7-8.5l-1.9-1.4h-3.2l-2,9.9H704.1"/>
<path id="path3126" inkscape:connector-curvature="0" class="st8" d="M916.8,185.4h-2.2l0.2-5.4H910l-2,5.4H906l0-0.1l9.2-24.5h2.1
	L916.8,185.4 M915,178.1l0.5-13.2l-4.8,13.2H915"/>
<path id="path4944-2" inkscape:connector-curvature="0" class="st9" d="M199,432.4v0.2C88.4,436.9,0,528,0,639.7
	C0,754.2,92.8,847,207.3,847c42.7,0,82.4-12.9,115.3-35c5.8-3.9,7.6-5,13.4-7.9c5.6-2.8,12.5-4.7,16.4-4.7h129.2h3.9h129.3
	c3.9,0,10.8,1.9,16.4,4.7c5.8,2.8,7.6,4,13.4,7.9c33,22.1,72.6,35,115.3,35c114.5,0,207.3-92.8,207.3-207.3
	c0-111.7-88.4-202.8-199-207.2v-0.2H760H485.6h-3.9H207.3H199L199,432.4z"/>
<path id="path5631-77" inkscape:connector-curvature="0" sodipodi:nodetypes="ccccaacaasaczssssscccaaasczccsscczczccccccccccccccc" class="st9" d="
	M652.8,431.7h40.3h33.9h36.7c0,0,2.7,0,4,0c3.8,0.1,7.5,0.3,11.3,0.6c3.5,0.3,6.8,0.6,10.4,1.1c3.6,0.5,6.6,0.8,9.9,1.4
	c2.6,0.5,5.2,1,7.8,1.7c2.7,0.6,5.3,1.4,7.9,2.2c2.2,0.6,4.3,1.3,6.4,2c3.7,1.2,7.9,2.7,11,3.8c1.7,0.6,3,1.1,4.9,1.9
	c1.9,0.8,4.4,1.8,6.5,2.8c2.2,1,4.4,2,6.5,3.1c2,1,4,2,6,3.1c0.9,0.5,1.8,1,2.7,1.4c0.6,0.3,1.3,0.7,1.9,1c0.3,0.2,1,0.5,1,0.5
	l0.7-5.5c-0.3-0.8-1-1.4-1.7-1.7c-1.1-0.7-2.2-1.3-3.2-2c-1.4-0.9-2.9-1.8-4.3-2.6c-1-0.6-2-1.1-3.1-1.6c-1.2-0.6-2.5-1.2-3.7-1.7
	c-1-0.5-2-1-3-1.5c-1.1-0.5-0.8-0.5-3.3-1.5c-2.5-1-8.4-3.1-11.9-4.4c-2.7-0.9-4.1-1.4-5.9-2c-3.3-1.1-6.2-1.7-10.3-2.8
	c-2.5-0.7-3.8-1.2-6.6-1.7c-2.5-0.4-4.5-0.9-6.4-1.2l-2.4-0.4c0,0-1.8-0.3-3.1-0.4s-3.5-0.4-4.9-0.6c-1.5-0.1-2.6-0.3-6-0.7
	s-7.9-0.7-11.8-1c-2-0.2-6.2-0.4-6.2-0.4h-12.4h-16.5h-15.4h-15h-15.7h-14.8h-10.6h-2.7l-3.5,0.3l-2.6,1l-1.7,1.3l-1,1.5
	L652.8,431.7z"/>
<path id="path5631-7-3" inkscape:connector-curvature="0" sodipodi:nodetypes="ccccaacaasaczssssscccaaasczccsscczczccccccccccccccc" class="st9" d="
	M314.6,431.7h-40.3h-33.9h-36.7c0,0-2.7,0-4,0c-3.8,0.1-7.5,0.3-11.3,0.6c-3.5,0.3-6.8,0.6-10.4,1.1c-3.6,0.5-6.6,0.8-9.9,1.4
	c-2.6,0.5-5.2,1-7.8,1.7c-2.7,0.6-5.3,1.4-7.9,2.2c-2.2,0.6-4.3,1.3-6.4,2c-3.7,1.2-7.9,2.7-11,3.8c-1.7,0.6-3,1.1-4.9,1.9
	c-1.9,0.8-4.4,1.8-6.5,2.8c-2.2,1-4.4,2-6.5,3.1c-2,1-4,2-6,3.1c-0.9,0.5-1.8,1-2.7,1.4c-0.6,0.3-1.3,0.7-1.9,1
	c-0.3,0.2-1,0.5-1,0.5l-0.7-5.5c0.3-0.8,1-1.4,1.7-1.7c1.1-0.7,2.2-1.3,3.2-2c1.4-0.9,2.9-1.8,4.3-2.6c1-0.6,2-1.1,3.1-1.6
	c1.2-0.6,2.5-1.2,3.7-1.7c1-0.5,2-1,3-1.5c1.1-0.5,0.8-0.5,3.3-1.5c2.5-1,8.4-3.1,11.9-4.4c2.7-0.9,4.1-1.4,5.9-2
	c3.3-1.1,6.2-1.7,10.3-2.8c2.5-0.7,3.8-1.2,6.6-1.7c2.5-0.4,4.5-0.9,6.4-1.2l2.4-0.4c0,0,1.8-0.3,3.1-0.4s3.5-0.4,4.9-0.6
	c1.5-0.1,2.6-0.3,6-0.7s7.9-0.7,11.8-1c2-0.2,6.2-0.4,6.2-0.4h12.4h16.5H247h15h15.7h14.8h10.6h2.7l3.5,0.3l2.6,1l1.7,1.3l1,1.5
	L314.6,431.7z"/>
<text transform="matrix(1 0 0 1 179.8499 602.0124)" class="st10"><tspan x="0" y="0" class="st11 st12">Plak, you’re</tspan><tspan x="-62.6" y="86.4" class="st13 st14 st12">DISCONECTED</tspan></text>
<path id="path5631-7-4" inkscape:connector-curvature="0" sodipodi:nodetypes="ccccaacaasaczssssscccaaasczccsscczczccccccccccccccc" class="st13" d="
	M1177.3,7.2H1137h-33.9h-36.7c0,0-2.7,0-4,0c-3.8,0.1-7.5,0.3-11.3,0.6c-3.5,0.3-6.8,0.6-10.4,1.1c-3.6,0.5-6.6,0.8-9.9,1.4
	c-2.6,0.5-5.2,1-7.8,1.7c-2.7,0.6-5.3,1.4-7.9,2.2c-2.2,0.6-4.3,1.3-6.4,2c-3.7,1.2-7.9,2.7-11,3.8c-1.7,0.6-3,1.1-4.9,1.9
	c-1.9,0.8-4.4,1.8-6.5,2.8c-2.2,1-4.4,2-6.5,3.1c-2,1-4,2-6,3.1c-0.9,0.5-1.8,1-2.7,1.4c-0.6,0.3-1.3,0.7-1.9,1
	c-0.3,0.2-1,0.5-1,0.5l-0.7-5.5c0.3-0.8,1-1.4,1.7-1.7c1.1-0.7,2.2-1.3,3.2-2c1.4-0.9,2.9-1.8,4.3-2.6c1-0.6,2-1.1,3.1-1.6
	c1.2-0.6,2.5-1.2,3.7-1.7c1-0.5,2-1,3-1.5s0.8-0.5,3.3-1.5s8.4-3.1,11.9-4.4c2.7-0.9,4.1-1.4,5.9-2c3.3-1.1,6.2-1.7,10.3-2.8
	c2.5-0.7,3.8-1.2,6.6-1.7c2.5-0.4,4.5-0.9,6.4-1.2l2.4-0.4c0,0,1.8-0.3,3.1-0.4s3.5-0.4,4.9-0.6c1.5-0.1,2.6-0.3,6-0.7
	c3.4-0.4,7.9-0.7,11.8-1c2-0.2,6.2-0.4,6.2-0.4h12.4h16.5h15.4h15h15.7h14.8h10.6h2.7l3.5,0.3l2.6,1l1.7,1.3l1,1.5L1177.3,7.2z"/>
<path id="rect6211-4-4-2" class="st13" d="M1183.5,33.7l40.7-30.6c6.8-5.1,16.4-3.7,21.4,3v0c5.1,6.8,3.7,16.4-3,21.4l-40.7,30.6
	c-6.8,5.1-16.4,3.7-21.4-3l0,0C1175.4,48.4,1176.7,38.8,1183.5,33.7z"/>
<path id="path6149-4" sodipodi:cx="1216.689" sodipodi:cy="468.91046" sodipodi:rx="28.928564" sodipodi:ry="28.928564" sodipodi:type="arc" class="st15" d="
	M1322.9,37.3c0,20.4-16.5,36.8-36.8,36.8c-20.3,0-36.8-16.5-36.8-36.8s16.5-36.8,36.8-36.8C1306.4,0.5,1322.9,17,1322.9,37.3z"/>
<path id="path6000-5-0" inkscape:connector-curvature="0" inkscape:transform-center-x="-2.3103301" inkscape:transform-center-y="-5.1055936" class="st16" d="
	M1356.9,33.1l-33,0l16.5-32.6L1356.9,33.1z"/>
<path id="path5695-4" inkscape:connector-curvature="0" class="st0" d="M1472.8,0.6c-63.4,0-114.8,51.4-114.8,114.8
	s51.4,114.8,114.8,114.8c63.4,0,114.9-51.4,114.9-114.8S1536.2,0.6,1472.8,0.6z M1472.8,43l16.5,32.6l-33,0L1472.8,43L1472.8,43z
	 M1432.9,98.9l0,33l-32.6-16.5L1432.9,98.9L1432.9,98.9z M1512.6,98.9l32.6,16.5l-32.6,16.5L1512.6,98.9L1512.6,98.9z M1489.3,155.2
	l-16.5,32.6l-16.5-32.6L1489.3,155.2L1489.3,155.2z"/>
<g id="rect4752-7-2" inkscape:connector-curvature="0">
	<path class="st2" d="M1455.5,197.8c-5.4,0-9.7-4.4-9.7-9.8v-45.7h-45.7c-5.4,0-9.8-4.4-9.8-9.7V98.1c0-5.4,4.4-9.8,9.8-9.8h45.7
		V42.7c0-5.4,4.4-9.7,9.7-9.7h34.6c5.4,0,9.7,4.4,9.7,9.7v45.7h45.7c5.4,0,9.8,4.4,9.8,9.8v34.6c0,5.4-4.4,9.7-9.8,9.7h-45.7v45.7
		c0,5.4-4.4,9.8-9.7,9.8H1455.5z M1472.8,184.5l14-27.8l-28.1,0L1472.8,184.5z M1514.1,129.5l27.8-14l-27.8-14.1L1514.1,129.5z
		 M1431.5,129.5l0-28.1l-27.8,14.1L1431.5,129.5z M1486.8,74.1l-14-27.8l-14.1,27.8L1486.8,74.1z"/>
	<path class="st3" d="M1490.1,34.5c4.6,0,8.2,3.7,8.2,8.2v47.2h47.2c4.6,0,8.2,3.7,8.2,8.2v34.6c0,4.6-3.7,8.2-8.2,8.2h-47.2v47.2
		c0,4.6-3.7,8.2-8.2,8.2h-34.6c-4.6,0-8.2-3.7-8.2-8.2v-47.2h-47.2c-4.6,0-8.2-3.7-8.2-8.2V98.1c0-4.6,3.7-8.2,8.2-8.2h47.2V42.7
		c0-4.6,3.7-8.2,8.2-8.2H1490.1 M1489.3,75.6L1472.8,43v0l-16.5,32.6L1489.3,75.6 M1512.6,131.9l32.6-16.5l-32.6-16.5h0
		L1512.6,131.9 M1433,131.9l0-33h0l-32.6,16.5L1433,131.9 M1489.3,155.2l-33,0l16.5,32.6L1489.3,155.2L1489.3,155.2 M1490.1,31.5
		h-34.6c-6.2,0-11.2,5-11.2,11.2v44.2h-44.2c-6.2,0-11.2,5-11.2,11.2v34.6c0,6.2,5,11.2,11.2,11.2h44.2v44.2c0,6.2,5,11.2,11.2,11.2
		h34.6c6.2,0,11.2-5,11.2-11.2v-44.2h44.2c6.2,0,11.2-5,11.2-11.2V98.1c0-6.2-5-11.2-11.2-11.2h-44.2V42.7
		C1501.3,36.5,1496.3,31.5,1490.1,31.5L1490.1,31.5z M1461.2,72.6l11.6-23l11.6,23L1461.2,72.6L1461.2,72.6z M1407,115.4l23-11.6
		l0,23.2L1407,115.4L1407,115.4z M1515.6,127l0-23.2l23,11.6L1515.6,127L1515.6,127z M1461.2,158.2l23.2,0l-11.6,23L1461.2,158.2
		L1461.2,158.2z"/>
</g>
</svg>
